<svg xmlns="http://www.w3.org/2000/svg"  viewBox="0 0 100 100" width="100px" height="100px" baseProfile="basic"><path fill="#f2f2f2" d="M60.219,71.156c2.457,0.119,6.147,0.974,8.404,1.896c6.042,2.468,12.197-2.498,10.521-8.969	c-0.793-3.06-1.804-6.028-3.044-8.936c-1.533-3.596-5.366-6.373-9.418-4.885c-3.511,1.29-6.53,5.559-4.885,9.418	c1.24,2.907,2.251,5.876,3.044,8.936c3.507-2.99,7.014-5.979,10.521-8.969c-5.176-2.115-10.268-3.208-15.848-3.478	c-3.932-0.19-7.48,4.074-7.141,7.845C52.768,68.387,56.023,70.953,60.219,71.156L60.219,71.156z"/><path fill="#87b674" d="M83.057,58.609c0.01-9.526,0.021-19.053,0.031-28.579c0.008-7.518-0.86-15.251-9.899-16.284	c-9.8-1.12-20.254-0.086-30.118-0.055c-5.355,0.017-10.89-0.378-16.222,0.085c-3.279,0.285-6.566,1.471-8.219,4.339	c-4.202,4.946-2.402,13.083-2.35,19.036c0.066,7.605-0.078,15.21,0.033,22.815c0.102,6.943-1.46,18.37,7.872,19.586	c9.18,1.196,19.128,0.199,28.389,0.243c4.664,0.022,9.329,0.044,13.993,0.066c3.514,0.017,7.127,0.17,10.381-1.362	C84.672,74.862,83.05,65.703,83.057,58.609z"/><path fill="#19805c" d="M74.46,34.629c-3.714-12.644-20.499,8.539-23.666,12.475c-1.15,1.07-2.299,2.141-3.449,3.211	c-4.161-3.238-8.165-6.654-12.001-10.278c-1.912-1.807-4.079-0.925-5.066,0.774c-2.374,0.478-4.181,3.848-1.885,6.159	c4.302,4.331,8.755,8.493,13.365,12.494c0.569,0.494,1.202,0.743,1.837,0.811c0.828,2.087,3.87,3.469,6.015,1.364	c0.214-0.21,0.429-0.42,0.644-0.631c5.906-4.934,11.563-10.116,16.984-15.566C70.799,42.783,75.911,39.571,74.46,34.629z"/><path fill="none" d="M16.844,39.401c0.067,7.605-0.078,15.21,0.033,22.815c0.102,6.943-1.46,18.37,7.872,19.586 c9.18,1.196,19.128,0.199,28.389,0.243c4.664,0.022,9.329,0.044,13.993,0.066c3.514,0.017,7.127,0.17,10.381-1.362 c7.722-3.636,6.1-12.795,6.107-19.889c0.01-9.526,0.021-19.053,0.031-28.579c0.008-7.518-0.86-15.251-9.899-16.284 c-9.8-1.12-20.254-0.086-30.118-0.055c-5.355,0.017-10.89-0.378-16.222,0.085"/><path d="M16.844,39.401c0,0-0.091,3.076-0.254,8.561c-0.071,2.768-0.158,6.143-0.258,10.046c-0.048,1.956-0.1,4.044-0.154,6.254 c-0.073,2.211-0.207,4.576-0.06,7.102c0.1,1.263,0.204,2.568,0.549,3.897c0.121,0.669,0.4,1.327,0.617,2.002 c0.328,0.645,0.583,1.334,1.059,1.936c0.392,0.651,0.972,1.177,1.533,1.727c0.644,0.436,1.278,0.957,2.028,1.213 c0.367,0.14,0.728,0.343,1.11,0.426l1.151,0.265c0.781,0.182,1.461,0.216,2.207,0.332c5.867,0.688,12.141,0.591,18.645,0.466 c3.265-0.065,6.545-0.095,9.954-0.027c3.414,0.044,6.895,0.088,10.437,0.133c1.778,0.009,3.529,0.068,5.421,0.028 c1.875-0.049,3.87-0.23,5.847-0.873c1.966-0.635,3.87-1.764,5.353-3.399c1.485-1.634,2.396-3.703,2.845-5.721 c0.892-4.074,0.519-7.925,0.45-11.517c-0.021-3.646-0.041-7.241-0.061-10.776c-0.063-7.084-0.124-13.928-0.182-20.467 c-0.115-3.312-0.38-6.7-1.793-9.844c-0.717-1.553-1.799-2.994-3.173-4.023c-1.369-1.039-2.941-1.648-4.478-2.007 c-1.578-0.283-2.999-0.392-4.413-0.471c-1.415-0.089-2.803-0.128-4.161-0.143c-2.716-0.032-5.313,0.043-7.783,0.149 c-4.905,0.259-9.359,0.495-13.284,0.702c-3.898,0.182-7.265,0.141-10.027,0.182c-2.76,0.03-4.904,0.134-6.352,0.252 c-1.449,0.117-2.204,0.218-2.204,0.218s0.762-0.047,2.211-0.071c1.45-0.024,3.586,0.005,6.337,0.135 c2.748,0.119,6.123,0.346,10.053,0.364c3.926,0.04,8.391-0.071,13.302-0.076c2.455,0.001,5.023,0.033,7.683,0.168 c1.33,0.067,2.684,0.156,4.055,0.293c1.374,0.123,2.789,0.298,4.057,0.569c1.268,0.348,2.474,0.875,3.47,1.683 c1,0.803,1.774,1.885,2.316,3.147c1.07,2.555,1.286,5.648,1.306,8.815c-0.065,6.524-0.134,13.351-0.205,20.42 c-0.019,3.562-0.068,7.115-0.047,10.851c0.068,3.701,0.343,7.366-0.401,10.676c-0.368,1.642-1.042,3.096-2.056,4.221 c-1.008,1.117-2.368,1.967-3.876,2.465c-3.022,1.013-6.627,0.73-10.197,0.784c-3.542,0.012-7.023,0.023-10.437,0.035 c-3.411-0.004-6.809,0.101-10.055,0.246c-6.511,0.287-12.648,0.559-18.325,0.091c-0.688-0.083-1.451-0.105-2.06-0.236 l-0.929-0.175c-0.312-0.051-0.573-0.206-0.863-0.299c-0.597-0.165-1.05-0.551-1.56-0.843c-0.422-0.406-0.886-0.764-1.207-1.269 c-0.393-0.438-0.619-1.012-0.916-1.522c-0.202-0.573-0.47-1.109-0.601-1.71c-0.356-1.157-0.507-2.377-0.653-3.561 C17.222,51.761,16.844,39.401,16.844,39.401z"/></svg>